<svg width="36" height="38" viewBox="0 0 36 38" fill="none" xmlns="http://www.w3.org/2000/svg">
<path d="M33.6191 9.28086C33.2286 9.28039 32.8543 9.12745 32.5782 8.85558C32.3021 8.58372 32.1467 8.21514 32.1462 7.83066C32.1639 7.4212 32.3356 7.03284 32.6278 6.741C32.92 6.44916 33.312 6.27469 33.7276 6.25146C34.5615 6.25146 35.2333 7.18506 35.2333 7.95756C35.2324 8.78586 34.4128 9.28086 33.6191 9.28086ZM33.7276 7.15086C33.5555 7.17485 33.3964 7.25466 33.2755 7.37768C33.1547 7.5007 33.0789 7.65989 33.0603 7.83006C33.0605 7.97594 33.1194 8.11579 33.2242 8.21894C33.3289 8.32209 33.4709 8.38011 33.6191 8.38026C33.9573 8.38026 34.3199 8.21016 34.3199 7.95696C34.3184 7.60356 33.9875 7.15146 33.7276 7.15146V7.15086Z" fill="white"/>
<path d="M33.4347 29.3257C32.9313 29.3251 32.4486 29.128 32.0927 28.7775C31.7367 28.427 31.5365 27.9518 31.5359 27.4561C31.565 26.9263 31.7898 26.4252 32.1679 26.0472C32.546 25.6691 33.0513 25.4401 33.5889 25.4032C34.6669 25.4032 35.5349 26.6248 35.5349 27.6364C35.537 28.6939 34.4682 29.3257 33.4347 29.3257ZM33.5889 26.3032C33.2945 26.34 33.0215 26.4741 32.8146 26.6835C32.6077 26.8929 32.4791 27.1653 32.45 27.4561C32.4503 27.7132 32.5541 27.9596 32.7387 28.1414C32.9233 28.3231 33.1736 28.4254 33.4347 28.4257C34.0051 28.4257 34.6209 28.1242 34.6209 27.6364C34.623 27.0787 34.102 26.3032 33.5901 26.3032H33.5889Z" fill="white"/>
<path d="M5.1959 5.39767C4.80827 5.39688 4.43674 5.24491 4.16264 4.97503C3.88855 4.70515 3.7342 4.33934 3.7334 3.95767C3.75096 3.55082 3.92149 3.16492 4.21188 2.87496C4.50226 2.585 4.89175 2.41168 5.30467 2.38867C6.13373 2.38867 6.8013 3.31597 6.8013 4.08367C6.80008 4.90567 5.98443 5.39767 5.1959 5.39767ZM5.30345 3.28717C5.13394 3.31082 4.97727 3.38945 4.85824 3.51062C4.73921 3.63179 4.66461 3.78857 4.64624 3.95617C4.6464 4.09948 4.70419 4.23689 4.80696 4.33837C4.90973 4.43984 5.04913 4.49712 5.19468 4.49767C5.52801 4.49767 5.8848 4.33057 5.8848 4.08217C5.88602 3.74077 5.55391 3.28717 5.30345 3.28717V3.28717Z" fill="white"/>
<path d="M6.33566 9.90251C6.01681 9.90219 5.71111 9.77734 5.48565 9.55534C5.26019 9.33335 5.13338 9.03235 5.13306 8.71841C5.14757 8.38654 5.28686 8.07183 5.52386 7.83543C5.76086 7.59903 6.07865 7.45781 6.41549 7.43921C7.10652 7.43921 7.64246 8.17691 7.64246 8.81171C7.64246 9.49451 6.97794 9.90251 6.33566 9.90251ZM6.41549 8.33921C6.32199 8.35757 6.2365 8.40381 6.1706 8.47164C6.1047 8.53948 6.06159 8.62563 6.04712 8.71841C6.0472 8.79373 6.07763 8.86595 6.13172 8.91921C6.18581 8.97247 6.25916 9.00243 6.33566 9.00251C6.53005 9.00251 6.7284 8.90621 6.7284 8.81171C6.7284 8.60081 6.51878 8.33921 6.41549 8.33921Z" fill="white"/>
<path d="M9.87545 34.0614C9.55657 34.061 9.25088 33.9361 9.02542 33.7141C8.79997 33.492 8.67317 33.191 8.67285 32.877C8.68744 32.5452 8.82676 32.2306 9.06375 31.9943C9.30075 31.7579 9.61849 31.6167 9.95528 31.5981C10.6463 31.5981 11.1823 32.3358 11.1823 32.9703C11.1823 33.6531 10.5177 34.0614 9.87545 34.0614ZM9.95528 32.4981C9.86181 32.5164 9.77633 32.5626 9.71043 32.6304C9.64453 32.6982 9.6014 32.7843 9.58691 32.877C9.58691 32.9524 9.6173 33.0247 9.67141 33.078C9.72551 33.1314 9.7989 33.1614 9.87545 33.1614C10.0701 33.1614 10.2682 33.0648 10.2682 32.9703C10.2682 32.7579 10.0589 32.4981 9.95528 32.4981Z" fill="white"/>
<path d="M4.59374 27.5665L4.42708 27.4765L4.33567 27.3127C4.24238 27.1447 4.10489 27.0045 3.93763 26.9069C3.77037 26.8092 3.5795 26.7577 3.38505 26.7577C3.1906 26.7577 2.99973 26.8092 2.83247 26.9069C2.66521 27.0045 2.52772 27.1447 2.43442 27.3127L2.34302 27.4765L2.17635 27.5665C2.00583 27.6584 1.86355 27.7938 1.76444 27.9585C1.66533 28.1231 1.61304 28.311 1.61304 28.5025C1.61304 28.6939 1.66533 28.8818 1.76444 29.0465C1.86355 29.2111 2.00583 29.3465 2.17635 29.4385L2.34302 29.5285L2.43442 29.6923C2.52772 29.8602 2.66521 30.0004 2.83247 30.0981C2.99973 30.1957 3.1906 30.2472 3.38505 30.2472C3.5795 30.2472 3.77037 30.1957 3.93763 30.0981C4.10489 30.0004 4.24238 29.8602 4.33567 29.6923L4.42708 29.5285L4.59374 29.4385C4.76435 29.3466 4.90671 29.2112 5.00588 29.0465C5.10506 28.8819 5.15739 28.6939 5.15739 28.5025C5.15739 28.311 5.10506 28.1231 5.00588 27.9584C4.90671 27.7937 4.76435 27.6583 4.59374 27.5665ZM4.15408 28.6489L3.79638 28.8415C3.76799 28.8568 3.74463 28.8798 3.72904 28.9078L3.53343 29.2603C3.51878 29.2865 3.49726 29.3083 3.47111 29.3236C3.44495 29.3388 3.41513 29.3468 3.38474 29.3468C3.35436 29.3468 3.32454 29.3388 3.29838 29.3236C3.27223 29.3083 3.2507 29.2865 3.23606 29.2603L3.04014 28.9078C3.02464 28.8797 3.00126 28.8567 2.97281 28.8415L2.6151 28.6489C2.5884 28.6345 2.56612 28.6133 2.55059 28.5876C2.53507 28.5618 2.52688 28.5324 2.52688 28.5025C2.52688 28.4725 2.53507 28.4431 2.55059 28.4173C2.56612 28.3916 2.5884 28.3704 2.6151 28.3561L2.97281 28.1635C3.00126 28.1482 3.02464 28.1252 3.04014 28.0972L3.23606 27.7447C3.2507 27.7185 3.27223 27.6966 3.29838 27.6814C3.32454 27.6662 3.35436 27.6581 3.38474 27.6581C3.41513 27.6581 3.44495 27.6662 3.47111 27.6814C3.49726 27.6966 3.51878 27.7185 3.53343 27.7447L3.72904 28.0972C3.74463 28.1251 3.76799 28.1481 3.79638 28.1635L4.15408 28.3561C4.18078 28.3704 4.20306 28.3916 4.21859 28.4173C4.23411 28.4431 4.2423 28.4725 4.2423 28.5025C4.2423 28.5324 4.23411 28.5618 4.21859 28.5876C4.20306 28.6133 4.18078 28.6345 4.15408 28.6489Z" fill="white"/>
<path d="M28.7075 3.80077L28.5411 3.71077L28.4497 3.54667C28.3564 3.37869 28.2189 3.23852 28.0517 3.14087C27.8844 3.04323 27.6935 2.9917 27.4991 2.9917C27.3046 2.9917 27.1138 3.04323 26.9465 3.14087C26.7792 3.23852 26.6418 3.37869 26.5485 3.54667L26.4571 3.71077L26.2907 3.80077C26.1201 3.89263 25.9777 4.02801 25.8786 4.19269C25.7794 4.35738 25.7271 4.54531 25.7271 4.73677C25.7271 4.92823 25.7794 5.11617 25.8786 5.28085C25.9777 5.44554 26.1201 5.58092 26.2907 5.67277L26.4571 5.76277L26.5485 5.92687C26.6418 6.09478 26.7793 6.23486 26.9466 6.33245C27.1138 6.43003 27.3047 6.48152 27.4991 6.48152C27.6935 6.48152 27.8843 6.43003 28.0516 6.33245C28.2188 6.23486 28.3563 6.09478 28.4497 5.92687L28.5411 5.76277L28.7075 5.67277C28.8781 5.58092 29.0204 5.44554 29.1196 5.28085C29.2188 5.11617 29.2711 4.92823 29.2711 4.73677C29.2711 4.54531 29.2188 4.35738 29.1196 4.19269C29.0204 4.02801 28.8781 3.89263 28.7075 3.80077V3.80077ZM28.2687 4.88317L27.911 5.07607C27.8826 5.09134 27.8592 5.11436 27.8437 5.14237L27.6481 5.49457C27.6334 5.52078 27.6119 5.54264 27.5858 5.55786C27.5596 5.57309 27.5298 5.58112 27.4994 5.58112C27.469 5.58112 27.4392 5.57309 27.413 5.55786C27.3869 5.54264 27.3654 5.52078 27.3507 5.49457L27.1548 5.14237C27.1394 5.1143 27.116 5.09125 27.0875 5.07607L26.7297 4.88317C26.703 4.86882 26.6808 4.84765 26.6652 4.82189C26.6497 4.79613 26.6415 4.76673 26.6415 4.73677C26.6415 4.70682 26.6497 4.67742 26.6652 4.65166C26.6808 4.6259 26.703 4.60473 26.7297 4.59037L27.0875 4.39777C27.1159 4.38251 27.1393 4.35949 27.1548 4.33147L27.3507 3.98077C27.3653 3.95448 27.3868 3.93254 27.4129 3.91726C27.4391 3.90197 27.469 3.89391 27.4994 3.89391C27.5298 3.89391 27.5597 3.90197 27.5858 3.91726C27.612 3.93254 27.6335 3.95448 27.6481 3.98077L27.8437 4.33297C27.8593 4.36093 27.8826 4.38393 27.911 4.39927L28.2687 4.59187C28.2951 4.60634 28.317 4.62747 28.3323 4.65308C28.3475 4.67868 28.3556 4.70783 28.3556 4.73752C28.3556 4.76721 28.3475 4.79637 28.3323 4.82197C28.317 4.84758 28.2951 4.8687 28.2687 4.88317V4.88317Z" fill="white"/>
<path d="M14.4988 9.32065C12.391 9.32065 10.6116 8.33995 10.1582 6.74605C9.86542 5.71705 10.1546 4.60525 10.9727 3.61555C11.8421 2.61509 13.0015 1.90042 14.2953 1.56745C17.1639 0.776654 19.9749 1.81195 20.5621 3.87595C21.1495 5.93995 19.2937 8.26285 16.425 9.05426C15.7983 9.22899 15.1502 9.31862 14.4988 9.32065V9.32065ZM16.2529 2.19685C15.6741 2.19896 15.0983 2.2788 14.5415 2.43415C13.4296 2.71678 12.4319 3.32687 11.6817 4.18285C11.0564 4.94065 10.8331 5.78065 11.0433 6.52045C11.4946 8.10685 13.7956 8.84456 16.1785 8.18756C18.5615 7.53055 20.1337 5.70685 19.6824 4.12045C19.3415 2.92315 17.9427 2.19685 16.2529 2.19685Z" fill="white"/>
<path d="M16.849 16.6596C16.493 16.6585 16.1471 16.5432 15.8636 16.3311C15.5802 16.119 15.3747 15.8217 15.2784 15.4842L14.8024 13.8108C14.6862 13.4 14.7402 12.9606 14.9525 12.589C15.1648 12.2173 15.5181 11.9437 15.935 11.8281L18.3073 11.1741C18.5138 11.1171 18.7297 11.1007 18.9427 11.1258C19.1557 11.151 19.3616 11.2172 19.5486 11.3208C19.7355 11.4243 19.9 11.5631 20.0324 11.7292C20.1649 11.8953 20.2628 12.0855 20.3206 12.2889L20.7969 13.962C20.9137 14.3728 20.86 14.8125 20.6476 15.1844C20.4353 15.5563 20.0816 15.8299 19.6643 15.945L17.2921 16.5993C17.1478 16.6391 16.9988 16.6594 16.849 16.6596ZM18.7488 12.0141C18.6832 12.0142 18.6179 12.0231 18.5547 12.0405L16.1824 12.6948C15.9988 12.7457 15.8432 12.8663 15.7498 13.03C15.6563 13.1937 15.6326 13.3872 15.6839 13.5681L16.1589 15.2415C16.2104 15.4224 16.3328 15.5758 16.4991 15.6679C16.6654 15.76 16.8621 15.7833 17.0459 15.7326L19.4191 15.0783C19.6028 15.0275 19.7585 14.9069 19.852 14.7431C19.9455 14.5793 19.9692 14.3857 19.9178 14.2047L19.4407 12.5307C19.398 12.3823 19.3073 12.2516 19.1825 12.1584C19.0577 12.0652 18.9054 12.0146 18.7488 12.0141Z" fill="white"/>
<path d="M33.9526 14.0414C33.5306 13.2536 32.5386 12.7784 31.6309 12.563C31.4612 11.6303 29.9283 10.7117 28.0597 9.59565C27.6621 9.35805 26.5442 8.67015 26.5442 8.67015C25.0393 7.72305 23.1956 6.56475 20.6028 6.61875C20.8353 5.70916 20.8195 4.75518 20.557 3.85353C20.2944 2.95189 19.7943 2.13463 19.1076 1.4846C18.4208 0.834576 17.5716 0.374897 16.6462 0.152164C15.7209 -0.0705697 14.7521 -0.0484388 13.8382 0.216313C12.9243 0.481065 12.0977 0.979025 11.4423 1.65971C10.7869 2.3404 10.3259 3.17962 10.106 4.09228C9.88621 5.00495 9.91536 5.95862 10.1905 6.85662C10.4657 7.75461 10.9772 8.56501 11.673 9.20565C11.4862 9.32565 11.0252 9.64725 10.9954 9.67695C8.00515 11.9009 4.10911 16.5557 4.39795 18.5474C3.5043 19.409 3.01162 20.4539 3.10943 21.3296C3.13292 21.5908 3.22151 21.8423 3.36735 22.0618C3.51319 22.2813 3.71177 22.4619 3.94549 22.5878C4.49119 22.8854 5.34309 22.7555 5.88544 22.5551C5.91623 22.5425 5.94997 22.5387 5.98285 22.544C6.01574 22.5493 6.04647 22.5635 6.0716 22.5851C6.27987 22.7625 6.54698 22.8585 6.82235 22.8551C6.98526 22.8555 7.14639 22.8216 7.29492 22.7558C7.9957 22.4441 8.18217 21.101 8.1974 20.3441C9.0944 20.0312 9.90122 18.9017 10.8144 17.6198C11.1888 17.0939 11.5736 16.5578 11.9771 16.0541C12.3296 17.3141 12.705 18.509 13.0048 19.4624C13.282 20.3426 13.5681 21.2528 13.5794 21.4307C13.5489 24.2255 13.7976 28.7549 14.3439 29.9894C15.0197 31.352 15.8042 32.6597 16.69 33.9002C16.9493 34.268 17.0559 34.7195 16.9879 35.1623C16.7573 36.6023 17.2341 37.5722 18.2981 37.8251C18.6279 37.9068 18.9665 37.9495 19.3066 37.9523C19.8207 37.9669 20.3275 37.829 20.7609 37.5563C21.0245 37.3775 21.2472 37.1464 21.4145 36.8777C21.5818 36.6089 21.6901 36.3087 21.7322 35.9963L21.7517 35.8712C21.859 35.198 21.9799 34.4351 21.7593 33.6998C21.6003 33.1679 21.3541 32.4998 21.0933 31.7921C20.6299 30.5345 20.1046 29.1089 20.0235 28.3004C19.9455 27.5258 20.2368 25.2323 20.3587 24.3794C20.3689 24.3361 20.3916 24.2967 20.424 24.2659C20.4565 24.2351 20.4973 24.2142 20.5415 24.2057C20.586 24.1976 20.6318 24.2017 20.6741 24.2175C20.7163 24.2334 20.7533 24.2604 20.781 24.2957C20.9422 24.6332 22.018 26.8997 22.2462 27.7157C22.387 28.355 22.4717 29.0051 22.4994 29.6588C22.5449 30.6986 22.7011 31.7308 22.9653 32.7386C23.1872 33.4924 23.4719 34.2269 23.8166 34.9346C23.9935 35.2287 24.2303 35.4837 24.5121 35.6835C24.7939 35.8833 25.1145 36.0236 25.454 36.0956C25.9161 36.1886 26.3927 36.1868 26.854 36.0902C27.3153 35.9937 27.7515 35.8045 28.1352 35.5346C28.3265 35.4077 28.4868 35.2408 28.6049 35.0458C28.723 34.8508 28.7959 34.6325 28.8184 34.4066C28.8438 33.994 28.7863 33.5805 28.6492 33.1898C28.512 32.7991 28.2979 32.4389 28.0192 32.1299C27.86 31.9966 27.7394 31.8243 27.6694 31.6305C27.5995 31.4367 27.5826 31.2281 27.6206 31.0259C27.9436 29.522 28.2538 27.311 28.2014 26.4155C28.1194 25.0007 26.7221 21.5159 25.4686 19.1492C25.1502 18.5492 24.7614 16.6757 24.3501 14.6927C24.2517 14.2196 24.1511 13.7366 24.0485 13.2527C24.5549 13.5713 25.0189 13.8686 25.4415 14.1395C27.2943 15.3284 28.3168 15.9848 29.1188 15.9848C29.1261 15.9848 29.1328 15.983 29.1401 15.9827C29.3869 16.5361 29.7537 17.0298 30.2147 17.429C30.426 17.5882 30.6861 17.6718 30.9521 17.6663C31.1248 17.6854 31.2996 17.6622 31.4609 17.5985C31.6222 17.5349 31.765 17.433 31.8765 17.3018C31.9984 17.1323 32.0036 16.6955 32.1565 16.5857C32.2551 16.5293 32.3626 16.4897 32.4746 16.4687C33.2022 16.2026 33.7701 15.9587 33.9691 15.5414C34.0888 15.3084 34.1498 15.0505 34.1469 14.7894C34.1441 14.5283 34.0774 14.2717 33.9526 14.0414V14.0414ZM24.7815 8.66235C24.6946 8.7004 24.5974 8.70976 24.5046 8.68905C24.2489 8.60224 24.03 8.43396 23.8824 8.21085C24.1935 8.35005 24.4921 8.50215 24.7815 8.66235ZM11.0432 6.52065C10.7631 5.53619 10.8384 4.48656 11.2562 3.55062C11.674 2.61468 12.4084 1.85032 13.3344 1.3878C14.2604 0.925273 15.3207 0.793191 16.3345 1.01406C17.3483 1.23493 18.253 1.79508 18.8943 2.59907C19.5357 3.40306 19.8741 4.40115 19.8519 5.42327C19.8297 6.4454 19.4482 7.42831 18.7725 8.20455C18.0967 8.98078 17.1686 9.5023 16.1461 9.68025C15.1236 9.8582 14.0701 9.68157 13.165 9.18045C12.1279 8.60552 11.3648 7.64895 11.0432 6.52065V6.52065ZM6.91833 21.9356C6.88507 21.9531 6.84773 21.9618 6.81 21.9608C6.77228 21.9598 6.73547 21.9491 6.70322 21.9299C6.23065 21.5345 5.98933 21.4874 5.73949 21.6347C5.43907 21.8102 4.67308 21.9566 4.3879 21.8003C4.28171 21.7445 4.19187 21.6627 4.12699 21.5629C4.06211 21.4631 4.02437 21.3486 4.0174 21.2303C3.96347 20.7452 4.25414 19.9604 4.99788 19.226L7.29035 20.276C7.29888 20.9351 7.10297 21.8237 6.91833 21.9356ZM10.0651 17.1026C9.25985 18.2339 8.42836 19.4009 7.81045 19.5209L5.27576 18.3608C5.07954 17.2052 8.06791 13.2068 10.9082 10.8809C11.0602 12.2667 11.3215 13.6389 11.6897 14.9849C11.1125 15.6635 10.5703 16.3703 10.0651 17.1026V17.1026ZM20.2335 32.0987C20.4894 32.7929 20.7307 33.4487 20.8822 33.9539C20.9999 34.542 20.9884 35.1482 20.8483 35.7317L20.8282 35.8586C20.8036 36.0474 20.7396 36.2291 20.6404 36.3925C20.5411 36.5559 20.4087 36.6974 20.2515 36.8081C19.8459 37.0754 19.246 37.1249 18.5123 36.95C17.9465 36.8153 17.7378 36.26 17.891 35.3021C17.9951 34.6303 17.8341 33.9448 17.441 33.3863C16.5889 32.1948 15.8334 30.9391 15.1815 29.6309C14.9222 29.0444 14.7153 27.3266 14.5977 25.3871C16.1476 24.8651 18.1189 24.9371 19.2304 26.0471C19.1281 26.8233 19.0892 27.6065 19.1144 28.3889C19.2058 29.3096 19.7289 30.7274 20.2341 32.0987H20.2335ZM26.305 23.1527C26.8662 24.5735 27.2541 25.8311 27.291 26.4656C27.337 27.2534 27.0317 29.4239 26.7282 30.8378C26.6614 31.1784 26.6825 31.53 26.7895 31.8605C26.8965 32.191 27.086 32.4898 27.3406 32.7296C27.7293 33.1582 27.9344 33.7183 27.9131 34.2926C27.9066 34.3904 27.8777 34.4854 27.8285 34.5707C27.7794 34.6559 27.7114 34.7291 27.6295 34.7849C27.3482 34.9838 27.0289 35.1247 26.6908 35.199C26.3528 35.2733 26.0029 35.2795 25.6624 35.2172C25.4447 35.1721 25.2389 35.0834 25.0576 34.9564C24.8764 34.8295 24.7237 34.6671 24.6091 34.4795C24.3017 33.8333 24.046 33.1644 23.8443 32.4791C23.6001 31.5326 23.456 30.5639 23.4141 29.5883C23.3835 28.8769 23.2886 28.1696 23.1308 27.4748C22.8785 26.7273 22.5826 25.9948 22.2447 25.2809C23.1481 23.8325 25.5737 23.0567 26.305 23.1527ZM24.6597 19.5635C25.1121 20.4179 25.5515 21.353 25.9394 22.2614C24.3576 22.4503 22.8954 23.1865 21.8139 24.3386C21.7697 24.2444 21.7295 24.1586 21.6966 24.0899C21.6375 23.9645 21.5665 23.822 21.5512 23.8007C21.4235 23.6165 21.244 23.4731 21.0348 23.3878C20.8255 23.3026 20.5955 23.2792 20.373 23.3207C20.1532 23.3624 19.9505 23.4664 19.7897 23.6198C19.629 23.7733 19.5172 23.9696 19.4681 24.1847C19.4651 24.1982 19.4623 24.2117 19.4605 24.2255C19.455 24.2633 19.4126 24.5555 19.359 24.9737C17.9928 24.0248 16.0952 24.0023 14.5511 24.4583C14.5053 23.4311 14.4849 22.3829 14.4953 21.4388C14.498 21.1829 14.3472 20.681 13.8801 19.1951C13.1166 16.7675 11.8564 12.7547 11.7863 10.2125C12.0103 10.0565 12.229 9.91995 12.4447 9.79425C12.5362 9.85155 12.6242 9.91125 12.719 9.96375C13.9678 10.6552 15.4444 10.8299 16.824 10.4495C18.2036 10.0691 19.3732 9.16465 20.0756 7.93515C20.1509 7.80285 20.2173 7.66755 20.2807 7.53135C20.6655 7.50489 21.0519 7.50881 21.4361 7.54305C22.2094 8.86305 22.8986 12.1793 23.4574 14.8706C23.9165 17.0948 24.2809 18.8507 24.6597 19.5635ZM25.9424 13.385C25.3154 12.9824 24.6048 12.527 23.7813 12.0182C23.4885 10.5599 23.0746 9.12777 22.5436 7.73625C22.5601 7.74045 22.5741 7.74615 22.5915 7.75035C22.8239 8.35035 23.3952 9.37035 24.3081 9.56805C24.4046 9.58849 24.5031 9.59855 24.6018 9.59805C24.9902 9.58712 25.3608 9.43493 25.642 9.17085C25.78 9.25665 27.1828 10.1234 27.585 10.3637C28.5557 10.9433 30.8 12.2837 30.7382 12.7304L29.1578 15.0809C28.6404 15.1226 27.542 14.4122 25.9412 13.385H25.9424ZM33.1504 15.146C33.0483 15.3176 32.339 15.5588 32.0776 15.653C31.7098 15.7865 31.5575 15.8414 31.4451 15.9743C31.3201 16.1479 31.2469 16.3525 31.2339 16.565C31.1867 16.8926 30.8799 16.7963 30.7827 16.7219C30.4181 16.3952 30.1315 15.9932 29.9433 15.5447L31.3674 13.4279C32.1992 13.616 32.9091 14.0207 33.1452 14.4617C33.2085 14.5648 33.2423 14.6828 33.243 14.8033C33.2437 14.9237 33.2113 15.0421 33.1492 15.146H33.1504Z" fill="white"/>
<path d="M1.2026 13.7229C0.883723 13.7225 0.578024 13.5976 0.352572 13.3755C0.127119 13.1535 0.000322497 12.8525 0 12.5385C0.0145193 12.2067 0.153786 11.8921 0.390736 11.6558C0.627686 11.4195 0.945395 11.2784 1.28212 11.2599C1.97316 11.2599 2.50941 11.9973 2.50941 12.6318C2.5088 13.3146 1.84488 13.7229 1.2026 13.7229ZM1.28212 12.1599C1.18874 12.1782 1.10332 12.2243 1.03748 12.2921C0.971637 12.3598 0.928549 12.4458 0.914062 12.5385C0.914143 12.6138 0.944559 12.6861 0.998644 12.7394C1.05273 12.7927 1.12607 12.8227 1.2026 12.8229C1.3973 12.8229 1.59534 12.7263 1.59534 12.6318C1.59473 12.4194 1.38572 12.1599 1.28212 12.1599V12.1599Z" fill="white"/>
</svg>
