<svg width="30" height="30" viewBox="0 0 30 30" fill="none" xmlns="http://www.w3.org/2000/svg">
<path d="M5.53312 25.5009L3.42749 1.875H26.5725L24.4641 25.4972L14.9859 28.125L5.53312 25.5009Z" fill="#1572B6"/>
<path d="M15 26.1168L22.6594 23.9934L24.4612 3.80713H15V26.1168Z" fill="#33A9DC"/>
<path d="M15 12.3666H18.8344L19.0987 9.3994H15V6.50159H22.2656L22.1963 7.27877L21.4847 15.2644H15V12.3666Z" fill="white"/>
<path d="M15.0178 19.8918L15.0047 19.8956L11.7778 19.0237L11.5715 16.7128H8.66248L9.06841 21.2625L15.0037 22.9106L15.0178 22.9068V19.8918Z" fill="#EBEBEB"/>
<path d="M18.5878 15.1416L18.239 19.0219L15.0074 19.8938V22.9088L20.9474 21.2625L20.9915 20.7732L21.4949 15.1416H18.5878Z" fill="white"/>
<path d="M15.0103 6.50159V9.3994H8.01091L7.95278 8.74784L7.8206 7.27877L7.75122 6.50159H15.0103Z" fill="#EBEBEB"/>
<path d="M15 12.3666V15.2644H11.8134L11.7553 14.6128L11.6241 13.1438L11.5547 12.3666H15Z" fill="#EBEBEB"/>
</svg>
