<svg width="30" height="23" viewBox="0 0 30 23" fill="none" xmlns="http://www.w3.org/2000/svg">
<path d="M26.2158 8.50886L21.3845 1.60997L23.6851 0L28.515 6.89889L26.2158 8.50886Z" fill="white"/>
<path d="M23.5714 12.0741L21.1572 8.62251L9.65854 16.6738L12.0728 20.1225L9.77364 21.7339L3.33374 12.5345L5.6329 10.9245L8.04716 14.3746L19.5458 6.32335L17.1315 2.8732L19.4307 1.26323L25.8706 10.4613L23.5714 12.0727V12.0741Z" fill="white"/>
<path d="M26.905 4.59825L29.2042 2.98828L27.5942 0.689117L25.295 2.29909L26.905 4.59825Z" fill="white"/>
<path d="M7.81957 21.39L2.98825 14.4911L0.689087 16.101L5.51901 22.9999L7.81957 21.39Z" fill="white"/>
<path d="M3.90913 20.7008L1.60997 22.3108L0 20.0117L2.29916 18.4017L3.90913 20.7008Z" fill="white"/>
</svg>
