<svg width="28" height="28" viewBox="0 0 28 28" fill="none" xmlns="http://www.w3.org/2000/svg">
<path d="M18.6667 18.6667C21.244 18.6667 23.3333 16.5774 23.3333 14C23.3333 11.4227 21.244 9.33337 18.6667 9.33337C16.0893 9.33337 14 11.4227 14 14C14 16.5774 16.0893 18.6667 18.6667 18.6667Z" fill="#19BCFE"/>
<path fill-rule="evenodd" clip-rule="evenodd" d="M9.33329 28C10.571 28 11.758 27.5083 12.6331 26.6331C13.5083 25.758 14 24.571 14 23.3333V18.6666H9.33329C8.09562 18.6666 6.90863 19.1583 6.03346 20.0335C5.15829 20.9086 4.66663 22.0956 4.66663 23.3333C4.66663 24.571 5.15829 25.758 6.03346 26.6331C6.90863 27.5083 8.09562 28 9.33329 28Z" fill="#09CF83"/>
<path fill-rule="evenodd" clip-rule="evenodd" d="M9.33329 18.6667H14V9.33337H9.33329C8.09562 9.33337 6.90863 9.82504 6.03346 10.7002C5.15829 11.5754 4.66663 12.7624 4.66663 14C4.66663 15.2377 5.15829 16.4247 6.03346 17.2999C6.90863 18.175 8.09562 18.6667 9.33329 18.6667Z" fill="#A259FF"/>
<path fill-rule="evenodd" clip-rule="evenodd" d="M9.33329 9.33333H14V0H9.33329C8.09562 0 6.90863 0.491665 6.03346 1.36684C5.15829 2.242 4.66663 3.42899 4.66663 4.66667C4.66663 5.90434 5.15829 7.09133 6.03346 7.9665C6.90863 8.84167 8.09562 9.33333 9.33329 9.33333Z" fill="#F24E1E"/>
<path fill-rule="evenodd" clip-rule="evenodd" d="M18.6667 9.33333H14V0H18.6667C19.9043 0 21.0913 0.491665 21.9665 1.36684C22.8417 2.242 23.3333 3.42899 23.3333 4.66667C23.3333 5.90434 22.8417 7.09133 21.9665 7.9665C21.0913 8.84167 19.9043 9.33333 18.6667 9.33333Z" fill="#FF7262"/>
</svg>
