<svg width="31" height="17" viewBox="0 0 31 17" fill="none" xmlns="http://www.w3.org/2000/svg">
<path d="M28.1818 0H2.81818C1.26818 0 0 1.275 0 2.83333V14.1667C0 15.725 1.26818 17 2.81818 17H28.1818C29.7318 17 31 15.725 31 14.1667V2.83333C31 1.275 29.7318 0 28.1818 0ZM14.0909 9.91667H9.86364V14.1667H7.04545V9.91667H2.81818V7.08333H7.04545V2.83333H9.86364V7.08333H14.0909V9.91667ZM20.4318 12.75C19.2623 12.75 18.3182 11.8008 18.3182 10.625C18.3182 9.44917 19.2623 8.5 20.4318 8.5C21.6014 8.5 22.5455 9.44917 22.5455 10.625C22.5455 11.8008 21.6014 12.75 20.4318 12.75ZM26.0682 8.5C24.8986 8.5 23.9545 7.55083 23.9545 6.375C23.9545 5.19917 24.8986 4.25 26.0682 4.25C27.2377 4.25 28.1818 5.19917 28.1818 6.375C28.1818 7.55083 27.2377 8.5 26.0682 8.5Z" fill="white"/>
</svg>
