<svg width="28" height="28" viewBox="0 0 28 28" fill="none" xmlns="http://www.w3.org/2000/svg">
<path d="M27.4719 12.7527L15.2469 0.528279C14.5433 -0.175768 13.4014 -0.175768 12.6969 0.528279L10.1583 3.06687L13.3786 6.2872C14.127 6.03433 14.9851 6.20397 15.5817 6.8005C16.181 7.40086 16.3495 8.26634 16.0905 9.01709L19.194 12.1207C19.9449 11.862 20.8112 12.0294 21.4109 12.6301C22.2491 13.4679 22.2491 14.8258 21.4109 15.6641C20.5726 16.5026 19.2147 16.5026 18.3759 15.6641C17.7454 15.033 17.5897 14.1072 17.9088 13.3305L15.0146 10.4362L15.0142 18.0528C15.224 18.1565 15.4157 18.2936 15.5817 18.4586C16.4198 19.2964 16.4198 20.6544 15.5817 21.4934C14.7433 22.3314 13.3848 22.3314 12.5476 21.4934C11.7095 20.6544 11.7095 19.2965 12.5476 18.4587C12.7485 18.2577 12.9872 18.0986 13.2499 17.9904V10.3029C12.9868 10.1955 12.7479 10.0363 12.5476 9.83467C11.9126 9.20051 11.7599 8.26875 12.0853 7.48901L8.91078 4.31419L0.528281 12.6961C-0.176094 13.4008 -0.176094 14.5428 0.528281 15.247L12.7536 27.4716C13.4574 28.1758 14.599 28.1758 15.3038 27.4716L27.4718 15.3037C28.176 14.5994 28.176 13.4567 27.4718 12.7527" fill="#DE4C36"/>
</svg>
