<svg width="27" height="27" viewBox="0 0 27 27" fill="none" xmlns="http://www.w3.org/2000/svg">
<path d="M0 0H27V27H0V0Z" fill="#F7DF1E"/>
<path d="M7.09935 22.5631L9.16548 21.3127C9.56415 22.0194 9.92675 22.6175 10.7966 22.6175C11.6303 22.6175 12.156 22.2913 12.156 21.0228V12.3956H14.6933V21.0586C14.6933 23.6866 13.1528 24.8828 10.9053 24.8828C8.87555 24.8828 7.69736 23.8316 7.09924 22.5629" fill="black"/>
<path d="M16.0714 22.2912L18.1373 21.0951C18.6812 21.9833 19.3881 22.6357 20.6385 22.6357C21.6899 22.6357 22.3603 22.11 22.3603 21.385C22.3603 20.5151 21.6716 20.2069 20.5116 19.6996L19.8774 19.4275C18.0468 18.6484 16.8326 17.6697 16.8326 15.6036C16.8326 13.7005 18.2824 12.2505 20.548 12.2505C22.1611 12.2505 23.321 12.8124 24.1546 14.2804L22.179 15.5492C21.7439 14.7699 21.2729 14.4619 20.5479 14.4619C19.8048 14.4619 19.3335 14.9331 19.3335 15.5492C19.3335 16.3104 19.8048 16.6187 20.8922 17.0899L21.5264 17.3617C23.6833 18.2861 24.8975 19.2285 24.8975 21.3489C24.8975 23.6327 23.1033 24.8831 20.6928 24.8831C18.3368 24.8831 16.8143 23.7594 16.0713 22.2913" fill="black"/>
</svg>
