<svg width="30" height="26" viewBox="0 0 30 26" fill="none" xmlns="http://www.w3.org/2000/svg">
<path d="M15 0C16.85 0 18.3333 1.44625 18.3333 3.25C18.3333 5.05375 16.85 6.5 15 6.5C13.15 6.5 11.6667 5.05375 11.6667 3.25C11.6667 1.44625 13.1667 0 15 0ZM30 19.5V16.25C26.2667 16.25 23.0667 14.69 20.6667 11.895L18.4333 9.295C18.1232 8.92852 17.7338 8.63354 17.2929 8.43124C16.852 8.22895 16.3706 8.12436 15.8833 8.125H14.1667C13.15 8.125 12.2167 8.5475 11.5833 9.295L9.35 11.895C6.93333 14.69 3.73333 16.25 0 16.25V19.5C4.61667 19.5 8.65 17.5987 11.6667 14.2188V17.875L5.2 20.3937C4.08333 20.8325 3.33333 21.9375 3.33333 23.0912C3.33333 24.7 4.66667 26 6.31667 26H10V25.1875C10 24.1101 10.439 23.0767 11.2204 22.3149C12.0018 21.553 13.0616 21.125 14.1667 21.125H19.1667C19.6333 21.125 20 21.4825 20 21.9375C20 22.3925 19.6333 22.75 19.1667 22.75H14.1667C12.7833 22.75 11.6667 23.8388 11.6667 25.1875V26H23.6833C25.3333 26 26.6667 24.7 26.6667 23.0912C26.6667 21.9375 25.9167 20.8325 24.8 20.3937L18.3333 17.875V14.2188C21.35 17.5987 25.3833 19.5 30 19.5Z" fill="white"/>
</svg>
