<svg width="30" height="27" viewBox="0 0 30 27" fill="none" xmlns="http://www.w3.org/2000/svg">
<path d="M24.666 8.74242C24.3467 8.63172 24.0247 8.52918 23.7004 8.43488C23.7548 8.20988 23.805 7.9876 23.8495 7.76923C24.5805 4.18332 24.1027 1.29444 22.4704 0.343286C20.9053 -0.568556 18.3458 0.382246 15.7609 2.65557C15.5061 2.88002 15.257 3.11094 15.0138 3.3481C14.851 3.1904 14.6853 3.03575 14.5168 2.88425C11.8077 0.453536 9.09223 -0.570925 7.46168 0.382957C5.89805 1.29764 5.43504 4.01339 6.09316 7.41184C6.15864 7.74842 6.23257 8.08326 6.31488 8.41605C5.93051 8.52642 5.55961 8.64389 5.20465 8.76894C2.0284 9.88802 0 11.6417 0 13.4608C0 15.3395 2.17758 17.224 5.48578 18.3666C5.75398 18.4589 6.02442 18.5444 6.29684 18.623C6.20836 18.9814 6.12982 19.3423 6.06129 19.7051C5.43387 23.0446 5.92383 25.6962 7.48324 26.605C9.09387 27.5437 11.7971 26.579 14.4293 24.2538C14.6427 24.0648 14.8515 23.8704 15.0553 23.6708C15.3187 23.9276 15.5891 24.1769 15.8663 24.4185C18.416 26.6356 20.9341 27.5309 22.492 26.6195C24.1011 25.6782 24.6241 22.8297 23.9452 19.3641C23.8917 19.0926 23.8317 18.8224 23.7653 18.5538C23.9551 18.497 24.1414 18.4385 24.3231 18.3776C27.7623 17.2262 30 15.3646 30 13.4608C30 11.6351 27.9061 9.86955 24.666 8.74242ZM23.9201 17.1484C23.756 17.2032 23.5877 17.2562 23.4162 17.3077C23.0365 16.093 22.5241 14.8015 21.8971 13.4671C22.4954 12.1644 22.9881 10.8894 23.3571 9.68268C23.664 9.77244 23.9618 9.86706 24.2489 9.96689C27.0251 10.9327 28.7184 12.3605 28.7184 13.4608C28.7184 14.6327 26.8896 16.154 23.9201 17.1484ZM22.688 19.6156C22.9882 21.148 23.031 22.5335 22.8321 23.6167C22.6535 24.59 22.2942 25.2388 21.8498 25.4988C20.9045 26.0518 18.8827 25.333 16.7021 23.4368C16.4444 23.2122 16.1928 22.9804 15.9478 22.7417C16.7932 21.8075 17.638 20.7214 18.4625 19.5152C19.9129 19.3852 21.283 19.1725 22.5255 18.8822C22.5867 19.1317 22.6411 19.3764 22.688 19.6156ZM10.2277 25.4032C9.30398 25.7328 8.56828 25.7422 8.12355 25.4831C7.17727 24.9316 6.78387 22.8025 7.32047 19.9467C7.38426 19.6092 7.45729 19.2736 7.53949 18.9402C8.76832 19.215 10.1285 19.4125 11.5822 19.5316C12.4124 20.7119 13.2816 21.7968 14.1575 22.7468C13.9714 22.9288 13.7808 23.1062 13.586 23.2787C12.422 24.3068 11.2556 25.0363 10.2277 25.4032ZM5.90039 17.1412C4.43754 16.6359 3.22945 15.9792 2.40141 15.2627C1.65727 14.6188 1.28168 13.9795 1.28168 13.4608C1.28168 12.3569 2.91023 10.9488 5.62652 9.99188C5.95617 9.87582 6.30117 9.76628 6.65918 9.6635C7.03465 10.8974 7.52707 12.1876 8.12133 13.4923C7.51934 14.8162 7.01988 16.127 6.64078 17.3755C6.39212 17.3036 6.14525 17.2254 5.90039 17.1412ZM7.35094 7.16303C6.78715 4.25142 7.16156 2.05506 8.10387 1.50381C9.10746 0.91668 11.3268 1.7538 13.6659 3.85269C13.8185 3.98987 13.9685 4.12983 14.1161 4.2725C13.2444 5.21832 12.3832 6.29513 11.5604 7.46844C10.1495 7.6006 8.79891 7.81281 7.55719 8.09714C7.48068 7.78761 7.41191 7.47618 7.35094 7.16315V7.16303ZM20.2916 10.3921C19.9983 9.8802 19.6941 9.3747 19.3793 8.876C20.3365 8.99832 21.2536 9.16068 22.1148 9.35915C21.8563 10.1966 21.534 11.0721 21.1547 11.9697C20.8774 11.4381 20.5897 10.9121 20.2916 10.3921ZM15.0144 5.19807C15.6055 5.84525 16.1975 6.56773 16.7798 7.35168C15.5986 7.2953 14.4154 7.29507 13.2341 7.35097C13.817 6.57425 14.4141 5.85271 15.0144 5.19807ZM9.70336 10.401C9.40903 10.9168 9.12664 11.4395 8.85645 11.9687C8.48332 11.0742 8.16398 10.1947 7.90324 9.34542C8.75918 9.15192 9.67195 8.99371 10.623 8.87363C10.3047 9.37537 9.99805 9.88461 9.70336 10.4009V10.401ZM10.6504 18.1401C9.66774 18.0292 8.74125 17.8792 7.88555 17.6909C8.15039 16.8264 8.47676 15.9282 8.85797 15.0146C9.12924 15.5441 9.41279 16.0671 9.7084 16.5832C10.0124 17.1137 10.3271 17.6334 10.6504 18.1401ZM15.0498 21.8147C14.4423 21.1525 13.8364 20.4198 13.2448 19.6318C13.8192 19.6546 14.4048 19.6662 15 19.6662C15.6115 19.6662 16.2159 19.6523 16.8109 19.6255C16.2267 20.4277 15.6369 21.1615 15.0498 21.8147ZM21.1668 14.9679C21.5678 15.8916 21.9057 16.7851 22.1741 17.6348C21.3043 17.8354 20.3652 17.9969 19.3757 18.1169C19.6927 17.6089 19.9998 17.0946 20.2966 16.5743C20.5984 16.0454 20.8885 15.5098 21.1668 14.9679ZM19.1865 15.9273C18.7321 16.725 18.2521 17.5076 17.7473 18.2738C16.833 18.3392 15.9166 18.3717 15 18.3712C14.0664 18.3712 13.1583 18.3419 12.2838 18.2845C11.7659 17.5201 11.2767 16.7362 10.8175 15.9344H10.8176C10.3605 15.1368 9.93347 14.322 9.53754 13.4917C9.93246 12.6612 10.3581 11.846 10.8137 11.0478L10.8136 11.048C11.269 10.2496 11.7542 9.46898 12.2682 8.70784C13.1604 8.63963 14.0753 8.6041 14.9999 8.6041H15C15.9288 8.6041 16.8449 8.63998 17.7368 8.70867C18.2456 9.46868 18.7278 10.2466 19.1823 11.041C19.6394 11.8374 20.0707 12.6486 20.4756 13.4733C20.0749 14.3065 19.6449 15.125 19.1865 15.9273ZM21.8303 1.46521C22.8348 2.05068 23.2255 4.41164 22.5943 7.50776C22.554 7.70528 22.5088 7.90648 22.4596 8.11052C21.2148 7.82015 19.8633 7.60427 18.4482 7.4701C17.6239 6.28388 16.7698 5.20542 15.9123 4.27178C16.137 4.05288 16.3671 3.83966 16.6023 3.63231C18.8171 1.68464 20.8871 0.915614 21.8303 1.46521ZM15 10.7537C16.4795 10.7537 17.6789 11.9657 17.6789 13.4608C17.6789 14.9558 16.4795 16.1679 15 16.1679C13.5205 16.1679 12.3211 14.9558 12.3211 13.4608C12.3211 11.9657 13.5205 10.7537 15 10.7537Z" fill="#00D8FF"/>
</svg>
